PathFileType	4	(X/Y/Z)	C:\Users\Basilio\Documents\Thesis Gigler\squatting_fais\c3dfiles\073\SLS_back_pre2\markers_experimental.trc
DataRate	CameraRate	NumFrames	NumMarkers	Units	OrigDataRate	OrigDataStartFrame	OrigNumFrames
200.000000	200.000000	4	61	mm	200.000000	633	1267
Frame#	Time	FHD			LBHD			RBHD			C7			T10			CLAV			LSHO			LUUPA			LMUPA			LDUPA			LLEP			LMEP			LRAD			LUL			LRFIN			RSHO			RUPA1			RMUPA			RDUPA			RLEP			RMEP			RRAD			RUL			RUFIN			LASI			RASI			USACR			LSACR			RSACR			LTHI1			LTHI2			LTHI3			LTHI4			LLFC			LMFC			LTIB1			LTIB2			LTIB3			LTIB4			LLMAL			LMMAL			LHEE			LMT1			LMT2			LMT5			RTHI			RTHI2			RTHI3			RTHI4			RLFC			RTIB1			RTIB2			RTIB3			RTIB4			RLMAL			RMMAL			RHEE			RMT1			RMT2			RMT5			RMFC			
		X1	Y1	Z1	X2	Y2	Z2	X3	Y3	Z3	X4	Y4	Z4	X5	Y5	Z5	X6	Y6	Z6	X7	Y7	Z7	X8	Y8	Z8	X9	Y9	Z9	X10	Y10	Z10	X11	Y11	Z11	X12	Y12	Z12	X13	Y13	Z13	X14	Y14	Z14	X15	Y15	Z15	X16	Y16	Z16	X17	Y17	Z17	X18	Y18	Z18	X19	Y19	Z19	X20	Y20	Z20	X21	Y21	Z21	X22	Y22	Z22	X23	Y23	Z23	X24	Y24	Z24	X25	Y25	Z25	X26	Y26	Z26	X27	Y27	Z27	X28	Y28	Z28	X29	Y29	Z29	X30	Y30	Z30	X31	Y31	Z31	X32	Y32	Z32	X33	Y33	Z33	X34	Y34	Z34	X35	Y35	Z35	X36	Y36	Z36	X37	Y37	Z37	X38	Y38	Z38	X39	Y39	Z39	X40	Y40	Z40	X41	Y41	Z41	X42	Y42	Z42	X43	Y43	Z43	X44	Y44	Z44	X45	Y45	Z45	X46	Y46	Z46	X47	Y47	Z47	X48	Y48	Z48	X49	Y49	Z49	X50	Y50	Z50	X51	Y51	Z51	X52	Y52	Z52	X53	Y53	Z53	X54	Y54	Z54	X55	Y55	Z55	X56	Y56	Z56	X57	Y57	Z57	X58	Y58	Z58	X59	Y59	Z59	X60	Y60	Z60	X61	Y61	Z61	

634	3.165	15.54198074340821	1282.579345703125	-766.1685180664064	-119.2683563232422	1264.766967773438	-798.120544433594	-151.373764038086	1250.846313476563	-666.2360839843751	-183.2166900634766	1181.683349609375	-729.6753540039064	-409.1058044433595	945.8824462890627	-749.4532470703126	-105.0711364746094	1048.883544921875	-724.6420898437501	-107.13720703125	1123.813354492188	-855.8276977539065	-37.15146255493165	1046.285522460938	-952.627136230469	4.362164020538331	1057.746826171875	-926.3927001953127	20.73998260498047	1010.007568359375	-960.694274902344	120.2677383422852	970.3156738281252	-958.8565673828127	107.0722198486328	915.0764770507815	-917.0053710937502	372.9424438476563	968.1414184570315	-830.3178710937502	381.1918945312501	962.6058349609377	-904.097595214844	454.4219970703126	970.6185302734377	-817.3881835937502	-105.065673828125	1111.41455078125	-592.1116943359376	-42.01803588867188	1011.419616699219	-481.2530822753907	0.5391511917114259	1025.524047851563	-498.1033630371095	15.42245483398438	973.716979980469	-472.2161560058595	104.6446762084961	943.9074707031252	-468.8808898925782	97.05751037597659	889.2876586914065	-530.4779663085939	359.7157287597657	952.8510742187502	-578.9590454101564	370.2259216308594	960.3106689453127	-506.2186889648439	451.6809082031251	976.1853027343752	-582.2530517578126	-361.9377136230469	714.5584716796876	-861.0056762695315	-360.0185546875001	753.8299560546876	-621.8484497070314	-497.9294433593751	864.922302246094	-746.7252197265626	-519.9959106445314	840.4364013671877	-771.0146484375002	-526.0908813476564	849.8244628906252	-714.9151000976564	-421.6625366210939	414.5929260253907	-904.6550292968752	-387.3461303710939	339.0624389648438	-882.8746337890627	-347.8729553222657	343.6500549316407	-853.833923339844	-419.6947021484376	289.5848999023438	-872.7044677734377	-432.6601562500001	247.2842559814454	-873.549743652344	-447.3697509765626	253.2411651611329	-736.2285156250001	-609.3796997070314	197.0540466308594	-827.5462036132815	-642.0159912109376	249.8745727539063	-889.0332031250002	-652.7988281250001	214.5387878417969	-864.2468261718752	-732.0424194335939	225.1046295166016	-837.9649658203127	-842.0058593750002	292.4456787109376	-879.477722167969	-823.5347290039065	290.5265197753907	-791.8360595703127	-865.012634277344	361.5072326660157	-846.6922607421877	-910.3733520507815	150.2138671875	-778.6973266601565	-907.8546142578127	142.131088256836	-816.0734863281252	-925.3590087890627	172.3026580810547	-874.7398681640627	-336.0668334960938	606.2960205078126	-557.4321289062501	-271.2736816406251	597.9539794921876	-571.5768432617189	-251.7529907226563	623.1751098632814	-579.9653930664064	-233.6832275390626	527.0654907226564	-595.8510742187501	-139.1628875732422	440.6539306640626	-643.7219238281251	-173.9993896484375	298.8303527832032	-748.8886108398439	-222.0374450683594	228.6630859375001	-682.3330078125001	-209.2559509277344	221.7955932617188	-727.3358764648439	-254.3146362304688	197.4658355712891	-756.8725585937501	-349.7951354980469	97.87779235839847	-694.7381591796876	-344.3582153320313	124.0525207519532	-783.9581298828127	-429.9044189453126	81.7462615966797	-746.5672607421876	-205.9968414306641	53.87370681762697	-763.7221679687501	-205.5367431640626	53.95070266723634	-721.8034667968751	-248.4511718750001	37.45186614990235	-673.5145874023439	-153.6516723632813	449.0526733398439	-767.8947143554689	
635	3.17	15.70858192443848	1282.007934570313	-766.2907104492189	-118.9881286621094	1264.3447265625	-798.1912841796877	-151.0413818359375	1250.383422851563	-666.1945190429689	-182.9300079345703	1181.234008789063	-729.6892700195314	-408.8846435546876	945.6381835937502	-749.4851074218751	-104.6748046875	1048.520629882813	-724.6580810546876	-106.8320846557617	1123.42138671875	-855.844421386719	-36.88470458984376	1045.953857421875	-952.5972290039065	4.619547367095948	1057.349853515625	-926.4285278320315	21.048583984375	1009.726501464844	-960.835632324219	120.5143508911133	969.8559570312502	-958.835632324219	107.4372024536133	914.5496826171877	-917.0465087890627	373.2028503417969	967.687927246094	-830.3426513671877	381.5342102050782	962.2520141601565	-904.0389404296877	454.6271057128907	970.0583496093752	-817.3874511718752	-104.7821655273438	1110.97314453125	-592.1434936523439	-41.67812728881837	1010.990905761719	-481.2702636718751	0.8022588491439822	1025.110229492188	-498.098114013672	15.717848777771	973.333190917969	-472.283416748047	104.9390869140625	943.4676513671877	-468.9734497070314	97.30601501464847	888.881042480469	-530.5629882812501	359.9754333496094	952.4437255859377	-578.7393188476564	370.5056152343751	959.868591308594	-506.2071228027345	451.8660583496095	975.7786254882815	-582.4739379882814	-361.9395141601563	714.2349853515626	-860.9837646484377	-359.8124694824219	753.6730957031251	-621.8601074218751	-497.8726806640626	864.6793212890627	-746.7183227539064	-519.8065795898439	840.1954345703127	-770.9714965820315	-525.9257202148439	849.6390380859377	-714.8818359375001	-421.8016967773439	414.3533325195314	-904.6321411132815	-387.4322204589845	338.6830139160157	-882.6478271484377	-347.9487304687501	343.2758483886719	-853.7047119140627	-419.8289794921876	289.2538757324219	-872.5200195312502	-432.8042297363282	247.0225372314454	-873.409118652344	-447.4024963378907	252.9477081298829	-736.0443725585939	-609.5332641601564	196.8579254150391	-827.289733886719	-642.1763916015626	249.7481842041016	-888.8643188476565	-652.9297485351564	214.3570404052735	-864.0660400390627	-732.1217651367189	224.9417877197266	-837.8492431640627	-842.0661621093752	292.3457031250001	-879.2436523437502	-823.614440917969	290.4069213867188	-791.5726318359377	-865.057312011719	361.4310302734376	-846.464782714844	-910.5163574218752	150.1456604003907	-778.4172973632815	-907.9362792968752	142.0380096435547	-815.688171386719	-925.487731933594	172.2551727294922	-874.4699707031252	-335.9390258789063	606.2593994140626	-557.4367065429689	-271.0975952148438	597.8856811523439	-571.5779418945314	-251.6317291259766	623.1572875976564	-579.9970092773439	-233.5290832519532	526.9670410156251	-595.8159179687501	-139.0455169677735	440.5953674316407	-643.7468261718751	-173.8697052001953	298.7723999023438	-748.8196411132814	-221.9862060546876	228.6708984375001	-682.2398681640626	-209.2374114990235	221.7851715087891	-727.2585449218751	-254.3110046386719	197.4524536132813	-756.8259887695314	-349.8021850585938	97.84342193603518	-694.6360473632814	-344.3369445800782	124.0593032836914	-783.8922119140627	-429.9285583496095	81.76270294189455	-746.5388793945314	-206.0164642333985	53.91315078735353	-763.6641235351564	-205.5296173095704	53.90428924560548	-721.8052368164064	-248.410873413086	37.39487075805665	-673.4701538085939	-153.498046875	449.0068359375001	-767.8624267578126	
636	3.175	16.2812557220459	1281.638671875	-766.4708251953126	-118.7329940795899	1263.88037109375	-798.2925415039065	-150.7512512207032	1249.998046875	-666.2587890625001	-182.6353302001953	1180.808959960938	-729.6674804687501	-408.7279663085939	945.395202636719	-749.5153808593751	-104.4804992675782	1048.095581054688	-724.7442626953126	-106.5601348876953	1123.057373046875	-855.8787231445315	-36.5478858947754	1045.588745117188	-952.5737915039065	4.851736545562745	1056.935424804688	-926.453063964844	21.34811782836914	1009.391235351563	-960.884216308594	120.8490982055664	969.4196777343752	-958.948669433594	107.7043228149414	914.1154785156252	-917.0378417968752	373.4603881835938	967.1523437500002	-830.3530883789065	381.7661132812501	961.7653808593752	-904.0861816406252	454.8062744140626	969.5579833984377	-817.3862915039065	-104.5045700073242	1110.550903320313	-592.1652221679689	-41.42212295532227	1010.539611816406	-481.3625793457032	1.09865665435791	1024.701416015625	-498.1395568847657	16.02864646911621	972.9155883789065	-472.3439025878907	105.2307739257813	943.024353027344	-469.0477600097657	97.58828735351565	888.4500122070315	-530.6208496093751	360.3788452148438	952.0150146484377	-578.8328247070314	370.7290039062501	959.6453247070315	-506.0256652832032	452.3148803710939	975.2634277343752	-582.5612792968751	-361.9723815917969	713.8261108398439	-861.0627441406252	-359.5094909667969	753.5028076171876	-621.9655151367189	-497.7202758789064	864.4448852539065	-746.7136230468751	-519.7377929687501	839.9448852539065	-770.9634399414065	-525.7226562500001	849.4282226562502	-714.7968139648439	-421.8530273437501	414.0032348632814	-904.3574829101565	-387.5058593750001	338.3511047363282	-882.5009765625002	-348.0374450683594	342.9392089843751	-853.6424560546877	-419.9608764648439	288.9360351562501	-872.3771972656252	-432.8491516113282	246.7467193603516	-873.279968261719	-447.5062561035157	252.6841888427735	-735.7998657226564	-609.6824951171876	196.6311798095704	-827.1103515625002	-642.2479858398439	249.5809020996094	-888.690856933594	-653.0555419921876	214.2178802490235	-863.8311767578127	-732.1878662109376	224.7706298828126	-837.5969848632815	-842.129333496094	292.2163391113282	-878.9252929687502	-823.7335205078127	290.3044128417969	-791.261169433594	-865.079284667969	361.3007202148438	-846.2330322265627	-910.7246093750002	150.1333160400391	-778.026550292969	-908.0891113281252	141.8984680175782	-815.3464965820315	-925.612243652344	172.3558807373047	-874.2825927734377	-335.7923889160157	606.2420043945314	-557.2747802734376	-271.0144958496094	597.8181762695314	-571.6339721679689	-251.5120391845704	623.1123046875001	-580.0239257812501	-233.380111694336	526.9457397460939	-595.7732543945314	-138.9121398925782	440.5467224121095	-643.7651367187501	-173.7690887451172	298.7181396484376	-748.8251342773439	-222.0378723144532	228.6684722900391	-682.1253051757814	-209.2580871582032	221.7604217529297	-727.1799926757814	-254.3331146240235	197.4100646972657	-756.6490478515626	-349.7823486328126	97.72534942626956	-694.5485839843751	-344.3268432617188	124.1411514282227	-783.7467041015627	-429.9379882812501	81.76572418212892	-746.4351806640626	-206.038070678711	53.90695953369142	-763.6262207031251	-205.5461883544922	53.84168624877931	-721.7443237304689	-248.4124603271485	37.35167694091798	-673.4084472656251	-153.4269714355469	448.8909301757814	-767.9457397460939	
637	3.18	16.84094619750977	1281.288208007813	-766.5176391601564	-118.4695663452149	1263.385375976563	-798.2900390625002	-150.3541564941407	1249.626708984375	-666.3676757812501	-182.2819213867188	1180.376831054688	-729.6921997070314	-408.6485290527345	945.1539306640627	-749.5628662109376	-104.3185272216797	1047.737060546875	-724.7676391601564	-106.2945327758789	1122.64453125	-855.8745117187502	-36.20557403564454	1045.223754882813	-952.629577636719	5.128203868865968	1056.537841796875	-926.496765136719	21.45513153076172	1008.950256347656	-960.9263305664065	121.1964492797852	969.0191650390627	-958.9898681640627	107.999382019043	913.7940673828127	-917.0974731445315	373.6275634765626	966.630798339844	-830.3513183593752	381.9129333496094	961.2218017578127	-904.0312500000002	455.0079650878907	969.038757324219	-817.290710449219	-104.2224044799805	1110.206665039063	-592.1307983398439	-41.12951660156251	1010.092346191406	-481.4363403320314	1.399455428123474	1024.285888671875	-498.0917968750001	16.31809425354004	972.474548339844	-472.4085998535157	105.5668334960938	942.6116333007815	-469.0893554687501	97.94949340820315	887.9695434570315	-530.7532958984376	360.8337097167969	951.6110839843752	-579.1633911132814	371.0448608398438	959.1004638671877	-506.2256774902345	452.599822998047	974.9874267578127	-582.3792724609376	-361.9432067871094	713.5225219726564	-861.1044921875002	-359.1917114257813	753.5198974609376	-622.0515747070314	-497.6531677246095	864.267272949219	-746.7127685546876	-519.7062377929689	839.6782226562502	-770.9468994140627	-525.5592651367189	849.2131958007815	-714.8051147460939	-422.0173339843751	413.681365966797	-904.3479003906252	-387.5878295898439	338.0764770507813	-882.324401855469	-348.1520385742188	342.6032104492188	-853.549743652344	-420.0697631835939	288.6231079101563	-872.2117309570315	-433.0292358398439	246.4764404296876	-873.095397949219	-447.5525512695314	252.4768676757813	-735.6372680664064	-609.8151245117189	196.3748626708985	-826.905212402344	-642.4362792968751	249.4316558837891	-888.4724731445315	-653.1010742187501	214.0044555664063	-863.609313964844	-732.2973632812501	224.6490478515626	-837.468933105469	-842.1835937500002	292.1348266601563	-878.6453857421877	-823.8054199218752	290.1985168457032	-791.0200195312502	-865.1240234375002	361.2087707519532	-845.9275512695315	-910.8843383789065	150.0469818115235	-777.6706542968752	-908.111999511719	141.8356323242188	-815.1284179687502	-925.8652343750002	172.2736206054688	-873.8922119140627	-335.6541137695313	606.1293334960939	-557.4216308593751	-270.8774414062501	597.8075561523439	-571.5935668945314	-251.4045562744141	623.0680541992189	-580.0267333984376	-233.2229461669922	526.9191894531251	-595.6917114257814	-138.7958068847657	440.5430603027345	-643.7088012695314	-173.6814270019532	298.6649780273438	-748.6125488281251	-222.0116729736329	228.6733093261719	-681.9672851562501	-209.2458496093751	221.7451782226563	-727.0831909179689	-254.2566070556641	197.3873291015626	-756.4978637695314	-349.8064880371094	97.66548156738284	-694.4324951171876	-344.3634338378907	124.1416397094727	-783.5930175781252	-429.9607238769532	81.72844696044923	-746.3701171875001	-205.9984893798829	53.94718551635744	-763.5749511718751	-205.5521850585938	53.82357025146486	-721.7387084960939	-248.4153594970704	37.28367233276368	-673.3550415039064	-153.3529510498047	448.7363891601564	-767.8952026367189	
